<?xml version="1.0" encoding="utf-8"?>
<!-- Generator: Adobe Illustrator 26.0.2, SVG Export Plug-In . SVG Version: 6.00 Build 0)  -->
<svg version="1.1" id="Layer_3" xmlns="http://www.w3.org/2000/svg" xmlns:xlink="http://www.w3.org/1999/xlink" x="0px" y="0px"
	 viewBox="0 0 64 64" style="enable-background:new 0 0 64 64;" xml:space="preserve">
<g>
	<polygon style="fill:#E4A350;" points="2,48 2,2 25,2 30,9 62,9 62,48 	"/>
	<path style="fill:#F5BB5C;" d="M62,9H30l-5-7H2v2c0,24.301,18.356,44,41,44h19V9z"/>
	<circle style="fill:#E3E8F6;" cx="32" cy="46" r="16"/>
	<circle style="fill:#F8F7FE;" cx="32" cy="46" r="12"/>
	<polygon style="fill:#E4A350;" points="30,9 43,9 39,4 26.429,4 	"/>
	<g>
		<path style="fill:#F8F7FE;" d="M59,19h-2v-5l-5,0v-2l6,0c0.552,0,1,0.448,1,1V19z"/>
	</g>
	<g>
		<rect x="57" y="21" style="fill:#F8F7FE;" width="2" height="2"/>
	</g>
	<polygon style="fill:#D24034;" points="39,42 36,39 32,43 28,39 25,42 29,46 25,50 28,53 32,49 36,53 39,50 35,46 	"/>
</g>
</svg>
